<svg xmlns="http://www.w3.org/2000/svg" version="1.1" xmlns:xlink="http://www.w3.org/1999/xlink" width="1500" height="245" viewBox="0 0 1500 245"><svg xml:space="preserve" width="1500" height="245" data-version="2" data-id="lg_x3NQ0xYSNLNEzVYXUc" viewBox="0 0 566 245" x="0" y="0"><rect width="100%" height="100%" fill="transparent"></rect><path fill="#fff" d="M275.805 120.534v-59.5h8.33v8.21q3.15-4.53 8.21-7.2 5.06-2.68 11.01-2.68 3.45 0 6.66.89l-3.39 8.27q-2.5-.77-4.88-.77-4.82 0-8.83 2.38-4.02 2.38-6.4 6.37-2.38 3.98-2.38 8.86v35.17Z"></path><rect width="34.21" height="61.17" x="-17.11" y="-30.59" fill="none" rx="0" ry="0" transform="translate(293.41 90.45)"></rect><path fill="#fff" d="M314.775 97.745v-36.71h8.33v35.04q0 4.88 2.38 8.87 2.38 3.98 6.4 6.36 4.02 2.38 8.83 2.38 4.88 0 8.84-2.38t6.34-6.36q2.38-3.99 2.38-8.87v-35.04h8.33l.06 59.5h-8.33l-.06-8.33q-3.16 4.52-8.18 7.2-5.03 2.67-10.98 2.67-6.73 0-12.26-3.27-5.53-3.27-8.8-8.81-3.28-5.53-3.28-12.25"></path><rect width="51.89" height="61.04" x="-25.95" y="-30.52" fill="none" rx="0" ry="0" transform="translate(341.22 92.05)"></rect><path fill="#fff" d="M378.565 120.534v-59.5h8.33v8.21q3.15-4.53 8.21-7.2 5.06-2.68 11.01-2.68 3.45 0 6.66.89l-3.39 8.27q-2.5-.77-4.88-.77-4.82 0-8.84 2.38-4.01 2.38-6.39 6.37-2.38 3.98-2.38 8.86v35.17Z"></path><rect width="34.21" height="61.17" x="-17.11" y="-30.59" fill="none" rx="0" ry="0" transform="translate(396.17 90.45)"></rect><path fill="#fff" d="M466.025 61.034h8.33v59.5h-8.33l-.3-11.07q-2.91 5.65-8.15 9.13-5.23 3.48-12.49 3.48-6.55 0-12.26-2.47t-10.05-6.81q-4.35-4.34-6.79-10.05-2.44-5.72-2.44-12.26 0-6.43 2.41-12.08t6.67-9.94q4.25-4.28 9.87-6.69 5.63-2.41 12.05-2.41 7.44 0 12.97 3.54 5.54 3.54 8.81 9.25Zm-21.12 52.95q6.37 0 10.95-3.12 4.58-3.13 7.05-8.42 2.47-5.3 2.47-11.66 0-6.55-2.5-11.82-2.5-5.26-7.08-8.35-4.58-3.1-10.89-3.1-6.31 0-11.51 3.12-5.21 3.13-8.27 8.42-3.07 5.3-3.07 11.73 0 6.48 3.15 11.75 3.16 5.26 8.36 8.36 5.21 3.09 11.34 3.09"></path><rect width="60.81" height="62.71" x="-30.41" y="-31.36" fill="none" rx="0" ry="0" transform="translate(444.45 91.22)"></rect><path fill="#fff" d="M487.035 120.535v-89.25h8.33v89.25Z"></path><rect width="8.33" height="89.25" x="-4.17" y="-44.63" fill="none" rx="0" ry="0" transform="translate(491.7 76.41)"></rect><path fill="#fff" d="M275.805 226.765v-59.5h8.33v8.21q3.15-4.52 8.21-7.2 5.06-2.68 11.01-2.68 3.45 0 6.66.89l-3.39 8.27q-2.5-.77-4.88-.77-4.82 0-8.83 2.38-4.02 2.38-6.4 6.37-2.38 3.98-2.38 8.86v35.17Z"></path><rect width="34.21" height="61.17" x="-17.11" y="-30.59" fill="none" rx="0" ry="0" transform="translate(293.41 196.68)"></rect><path fill="#fff" d="M340.545 228.304q-8.21 0-14.97-4.22-6.75-4.23-10.77-11.34-4.01-7.11-4.01-15.73 0-6.55 2.32-12.23 2.32-5.68 6.39-10 4.08-4.31 9.49-6.75 5.42-2.44 11.55-2.44 6.6 0 12.16 2.62 5.57 2.62 9.58 7.32 4.02 4.7 6.07 11 2.06 6.31 1.7 13.63h-50.46q.72 5.65 3.6 10.12 2.89 4.46 7.38 7.05 4.49 2.58 9.97 2.64 5.95 0 10.74-3.09t7.7-8.51l8.45 1.96q-3.57 7.92-10.77 12.95-7.2 5.02-16.12 5.02m-21.19-34.86h42.31q-.42-5.54-3.36-10.15-2.95-4.61-7.59-7.38-4.64-2.76-10.17-2.76-5.54 0-10.12 2.7-4.58 2.71-7.5 7.32-2.91 4.61-3.57 10.27"></path><rect width="59.44" height="62.71" x="-29.72" y="-31.36" fill="none" rx="0" ry="0" transform="translate(341.01 197.45)"></rect><path fill="#fff" d="M428.545 167.264h8.33v59.5h-8.33l-.3-11.07q-2.92 5.65-8.15 9.13-5.24 3.48-12.5 3.48-6.54 0-12.25-2.47-5.72-2.46-10.06-6.81-4.34-4.34-6.78-10.05-2.44-5.72-2.44-12.26 0-6.43 2.41-12.08t6.66-9.94q4.26-4.28 9.88-6.69 5.62-2.41 12.05-2.41 7.43 0 12.97 3.54 5.53 3.54 8.8 9.25Zm-21.13 52.95q6.37 0 10.95-3.12 4.58-3.13 7.05-8.42 2.47-5.3 2.47-11.66 0-6.55-2.5-11.81-2.5-5.27-7.08-8.36-4.58-3.1-10.89-3.1-6.3 0-11.51 3.13-5.21 3.12-8.27 8.42-3.06 5.29-3.06 11.72 0 6.48 3.15 11.75 3.15 5.26 8.36 8.36 5.21 3.09 11.33 3.09"></path><rect width="60.81" height="62.71" x="-30.41" y="-31.36" fill="none" rx="0" ry="0" transform="translate(406.97 197.45)"></rect><path fill="#fff" d="m490.065 211.824 7.44 4.05q-4.05 5.65-10.27 9.04-6.21 3.39-13.47 3.39-8.21 0-14.97-4.22-6.75-4.23-10.77-11.34-4.01-7.11-4.01-15.73 0-6.55 2.32-12.23 2.32-5.68 6.39-10 4.08-4.31 9.49-6.75 5.42-2.44 11.55-2.44 7.26 0 13.47 3.39 6.22 3.39 10.27 9.11l-7.44 3.98q-3.09-3.92-7.44-6.04-4.34-2.11-8.86-2.11-6.01 0-10.89 3.18-4.88 3.19-7.71 8.42-2.82 5.24-2.82 11.49 0 6.24 2.88 11.48 2.89 5.24 7.77 8.36 4.88 3.12 10.77 3.12 4.88 0 9.16-2.26t7.14-5.89"></path><rect width="53.49" height="62.71" x="-26.75" y="-31.36" fill="none" rx="0" ry="0" transform="translate(471.26 197.45)"></rect><path fill="#fff" d="M559.325 189.934v36.83h-8.33v-35.17q0-4.88-2.38-8.86-2.38-3.99-6.37-6.37t-8.86-2.38q-4.82 0-8.84 2.38t-6.4 6.37q-2.38 3.98-2.38 8.86v35.17h-8.33v-89.25h8.33v37.96q3.16-4.52 8.21-7.2 5.06-2.68 11.01-2.68 6.73 0 12.26 3.27 5.53 3.28 8.81 8.81 3.27 5.53 3.27 12.26"></path><rect width="51.89" height="89.25" x="-25.95" y="-44.63" fill="none" rx="0" ry="0" transform="translate(533.88 182.64)"></rect><path fill="#01ff70" fill-rule="evenodd" d="m107.413 21.2.126-.062.063-.032.094-.094.063-.063q0-.063.063-.095v-.126l.031-.031v-.095l.032-.063v-.126l.031-.062v-.19l.032-.157.126-.094-.095-.063v.157l-1.794 1.354zm.692-1.322c1.228.441 1.606-.692 2.204-1.417l.158-.126.157-.157zm42.19 166.87c28.746-34.129 46.755-73.013 50.44-117.91a91.307 91.307 0 0 0-4.598-39.2c-1.51-4.155-2.77-8.595-6.486-11.523q-6.234-5.038-13.444-8.69a56.673 56.673 0 0 0-32.87-5.95c-11.209 1.385-20.937 6.108-29.91 12.688l-.127.094c-.314.22-.566.441-.314.914.472.314.787 0 1.164-.22 6.675-3.15 13.539-5.826 20.875-6.833 15.239-2.11 28.18 1.952 37.876 14.326 8.124 10.327 11.178 22.511 12.28 35.263 1.165 13.223.063 26.353-3.023 39.23-11.492 47.857-35.263 87.434-77.39 114.92q-.063-.094 0 .032c2.393.913 4.817 1.731 7.147 2.708 1.417.598 2.519.44 3.873-.315a135.386 135.386 0 0 0 34.476-29.502" vector-effect="non-scaling-stroke"></path><path fill="#01ff70" fill-rule="evenodd" d="M130.913 180.45c23.677-28.809 38.317-61.396 40.616-98.958.944-15.018-.882-29.69-8.596-43.008-7.241-12.468-18.01-19.552-32.744-20.088-8.879-.314-17.128 2.047-25.188 5.447-.063-2.267-1.102-1.07-1.89-.503a147.98 147.98 0 0 0-31.736 30.32 198.355 198.355 0 0 0-33.847 65.08c-2.581 8.5-4.407 17.127-5.761 25.88-.22 1.511.126 1.952 1.7 1.983 6.234.095 6.234.158 7.116-5.982l.22-1.826a214.098 214.098 0 0 1 32.87-79.468 173.168 173.168 0 0 1 26.951-32.02c1.008.755-.692 1.29-.314 1.983q0 .063.094.158h.567l1.26-.378c7.839-2.173 15.742-2.834 23.676-.787 13.853 3.558 22.197 13.066 27.171 25.943 5.888 15.208 5.857 30.919 3.4 46.724a157.425 157.425 0 0 1-24.085 61.71c-11.713 17.947-25.944 33.375-45.087 43.702-.252.157-.63.315-.44.756l.44.251c1.732.63 3.527 1.165 5.164 1.984 2.015.976 3.59.63 5.541-.472a122.792 122.792 0 0 0 32.902-28.431m43.071 9.98a264.474 264.474 0 0 0 53.65-102.546 17.632 17.632 0 0 0-.251-11.46 154.277 154.277 0 0 0-10.453-23.551 210.95 210.95 0 0 1-2.298 23.298 229.84 229.84 0 0 1-28.715 77.989c-12.058 20.717-26.636 39.388-45.212 54.784a135.386 135.386 0 0 1-17.16 11.901c3.086 1.165 5.794 2.11 8.438 3.243 1.606.724 2.866.472 4.345-.44a160.574 160.574 0 0 0 37.656-33.218" vector-effect="non-scaling-stroke"></path><path fill="#01ff70" fill-rule="evenodd" d="M115.96 154.575c-.346.63-.755 1.228-.881 1.89a81.861 81.861 0 0 1-7.808 23.96c.535-.095.881-.064 1.039-.19q2.204-2.424 4.313-4.974a147.98 147.98 0 0 0 31.706-70.338c2.204-13.759 2.015-27.486-2.425-40.867-6.076-18.45-20.308-31.013-41.466-29.281-5.289.44-7.178 1.763-9.162 7.241l.19.095 1.322.094c16.75.158 28.147 8.438 34.917 23.393 5.919 13.13 6.36 27.046 4.628 41.057a129.088 129.088 0 0 1-16.372 47.92" vector-effect="non-scaling-stroke"></path><path fill="#01ff70" fill-rule="evenodd" d="M96.406 85.81q.19-.441.22-.756a3.149 3.149 0 0 0-.283-1.26 40.93 40.93 0 0 0-11.145-15.427c-1.637-1.322-4.629-1.794-4.754-3.935-.126-1.953 1.574-4 2.298-6.046.44-1.29.944-1.48 2.235-1.007q10.768 3.873 17.065 13.412c7.305 11.02 9.068 23.362 8.47 36.24-.063 1.448 0 2.77.503 4.093a88.158 88.158 0 0 1 4.723 20.654c1.102-.63 1.07-1.637 1.323-2.424a107.049 107.049 0 0 0 4.03-17.947c1.668-12.846 1.416-25.597-3.495-37.845-4.786-11.87-12.752-20.465-25.535-23.708-4.565-1.165-4.533-1.133-7.147 2.74a236.138 236.138 0 0 0-20.843 37.939A217.247 217.247 0 0 0 47.92 144.75c-.22 1.48 0 1.889 1.448 1.794a40.93 40.93 0 0 1 5.541 0c1.858.158 2.362-.692 2.613-2.361 1.764-10.83 4.566-21.41 7.777-31.863 2.645-8.627 6.801-16.718 8.438-25.692.787-4.407 2.236-8.626 3.275-12.971.472-1.921 1.07-2.33 2.96-1.26A62.97 62.97 0 0 1 96.405 85.81m138.755 24.558c-20.182 47.322-46.535 89.292-89.89 118.51 3.338 1.26 6.549 2.393 9.698 3.683 1.259.536 2.203.315 3.337-.44a170.019 170.019 0 0 0 24.243-19.364c22.04-21.095 39.294-45.684 53.808-72.352q.787-1.386.756-2.991a192.058 192.058 0 0 0-1.952-27.046m-66.654 127.137c3.873 1.448 7.336 2.613 10.705 4.061 1.7.724 2.897.346 4.313-.63 15.9-11.114 29.502-24.652 42.159-39.198.85-.976 1.26-2.11 1.637-3.275a182.613 182.613 0 0 0 6.8-25.88c.19-1.008.536-2.11-.125-3.4-18.198 26.29-38.443 50.25-65.489 68.322M83.12 37.543A122.792 122.792 0 0 0 64.827 51.65a160.574 160.574 0 0 0-36.334 54.28q-7.714 18.576-10.39 38.474c-.063.725-.535 1.984.315 2.11q2.897.472 5.73 0c1.323-.252.945-1.89 1.07-2.928.977-7.683 2.677-15.207 4.85-22.606q10.358-34.95 33.405-63.255 9.005-10.862 19.647-20.15" vector-effect="non-scaling-stroke"></path><path fill="#01ff70" fill-rule="evenodd" d="m58.189 55.773-.504-.567a31.485 31.485 0 0 0-8.092 5.825 136.96 136.96 0 0 0-43.008 80.76c-.756 5.163-.787 5.1 3.778 5.037 1.322-.063 1.889-.41 1.889-1.763q.126-2.267.567-4.44a147.98 147.98 0 0 1 37.97-77.453q3.621-3.778 7.4-7.43" vector-effect="non-scaling-stroke"></path></svg></svg>